<?xml version="1.0" encoding="UTF-8" standalone="no"?> <svg width="64" height="64" viewBox="0 0 64 64" fill="none" xmlns="http://www.w3.org/2000/svg">
<path d="M50.31 30.48C50.58 28.04 51.63 22.25 55.55 21.08C55.6887 21.0563 55.8208 21.0036 55.9378 20.9254C56.0547 20.8472 56.1538 20.7452 56.2287 20.626C56.3035 20.5068 56.3523 20.3732 56.372 20.2339C56.3916 20.0946 56.3817 19.9527 56.3427 19.8175C56.3038 19.6823 56.2368 19.5568 56.146 19.4493C56.0553 19.3418 55.9429 19.2546 55.8162 19.1935C55.6894 19.1324 55.5512 19.0987 55.4106 19.0946C55.2699 19.0906 55.13 19.1163 55 19.17C51.43 20.23 49 24.28 48.34 30.26C47.24 42 62.76 47.36 47.48 57.13C50.01 53.13 47.77 41.32 46.85 39.43C45.5 34.88 43.85 31.7 40.34 29.59C38.614 28.4712 36.9998 27.1886 35.52 25.76C31.06 21.4 31.52 21.03 29.89 16.57C28.83 13.88 28.6 10.9 26.24 8.82997C25.2875 8.01243 24.1522 7.4362 22.93 7.14997C21.85 3.70997 17 0.519969 16.88 5.73997C16.88 7.79997 16.06 9.65997 13.82 10.1C13.3385 10.1579 12.8753 10.3197 12.4624 10.5741C12.0495 10.8286 11.6968 11.1697 11.4286 11.5738C11.1605 11.9779 10.9833 12.4355 10.9093 12.9148C10.8353 13.3941 10.8662 13.8838 11 14.35C11.1762 14.9453 11.148 15.5825 10.92 16.16C10.02 17.05 8.16999 17.44 7.91999 19.06C7.70214 19.8951 7.71944 20.7741 7.96999 21.6C8.96999 23.85 12.82 23.22 15.04 24.15C15.32 24.33 15.35 24.35 15.61 25.33C15.77 25.98 14.89 26.94 14.19 27.72C11.34 30.23 12.62 33.29 13.32 36.85C13.6523 39.0823 14.4532 41.2191 15.67 43.12C16.4875 44.2758 16.9497 45.6452 17 47.06C17.046 50.218 16.0437 53.3023 14.15 55.83C13.35 56.76 11.57 56.73 10.72 57.48C10.328 57.7375 10.0536 58.1393 9.95619 58.598C9.85882 59.0568 9.94643 59.5354 10.2 59.93C11.3 61.45 15.05 61.22 16.6 60.43C18.15 59.64 21.2 57.19 22.9 50C24.83 41.89 25.08 41.25 26.81 40.15C27.6995 39.5811 28.7779 39.387 29.81 39.61C29.28 39.82 28.7 40.06 28.05 40.35C25.21 41.6 23.37 46.6 24.05 49.55C24.6392 51.6182 25.8465 53.457 27.51 54.82C26.2485 54.8795 24.9924 55.0231 23.75 55.25L23.04 55.4C21.52 55.79 21.64 56.93 21.52 57.82C21.4984 58.1561 21.5438 58.4931 21.6536 58.8115C21.7635 59.1298 21.9355 59.4232 22.1598 59.6744C22.3841 59.9257 22.6561 60.1298 22.96 60.275C23.2639 60.4202 23.5936 60.5034 23.93 60.52H44C44.0928 60.5346 44.1872 60.5346 44.28 60.52H44.36C50.93 59 56 52.78 56.24 49.32C56.7 42.23 49.48 37.6 50.31 30.48Z" fill="#4D4D4D"/>
</svg>
